<?xml version="1.0" encoding="utf-8"?>
<!-- Generator: Adobe Illustrator 16.0.0, SVG Export Plug-In . SVG Version: 6.00 Build 0)  -->
<!DOCTYPE svg PUBLIC "-//W3C//DTD SVG 1.1//EN" "http://www.w3.org/Graphics/SVG/1.1/DTD/svg11.dtd">
<svg version="1.1" xmlns="http://www.w3.org/2000/svg" xmlns:xlink="http://www.w3.org/1999/xlink" x="0px" y="0px" width="96px"
	 height="96px" viewBox="0 0 96 96" enable-background="new 0 0 96 96" xml:space="preserve">
<g id="DO_NOT_EDIT_-_BOUNDING_BOX">
	<rect id="BOUNDING_BOX" fill="none" width="96" height="96"/>
</g>
<g id="DO_NOT_EDIT_-_SHADOW">
	<path id="SHADOW" opacity="0.4" d="M88.023,49c0,29.633-10.364,40-40,40c-29.635,0-40-10.367-40-40c0-29.634,10.366-40,40-40
		C77.659,9,88.023,19.365,88.023,49z"/>
</g>
<g id="BLUE_BACKGROUNDS">
	<g id="BLUE_4_2_">
		<linearGradient id="BLUE_4_3_" gradientUnits="userSpaceOnUse" x1="47.9995" y1="8.0107" x2="47.9995" y2="87.9897">
			<stop  offset="0.0364" style="stop-color:#4791D9"/>
			<stop  offset="0.2496" style="stop-color:#4288CF"/>
			<stop  offset="0.6102" style="stop-color:#366EB5"/>
			<stop  offset="1" style="stop-color:#264C91"/>
		</linearGradient>
		<path id="BLUE_4_1_" fill="url(#BLUE_4_3_)" d="M8,47.989c0,29.633,10.365,40,40,40c29.637,0,40-10.367,40-40
			c0-28.985-9.926-39.53-38.091-39.979h-3.817C17.928,8.459,8,19.004,8,47.989z"/>
		<linearGradient id="HIGHLIGHT_BLU4_1_" gradientUnits="userSpaceOnUse" x1="47.9995" y1="8.2559" x2="47.9995" y2="87.5043">
			<stop  offset="0.0364" style="stop-color:#FFFFFF"/>
			<stop  offset="0.129" style="stop-color:#F5F7FA"/>
			<stop  offset="0.2858" style="stop-color:#DBE1ED"/>
			<stop  offset="0.4876" style="stop-color:#AFBDD7"/>
			<stop  offset="0.7265" style="stop-color:#738CB8"/>
			<stop  offset="0.9942" style="stop-color:#284D92"/>
			<stop  offset="1" style="stop-color:#264C91"/>
		</linearGradient>
		<path id="HIGHLIGHT_BLU4" opacity="0.25" fill="url(#HIGHLIGHT_BLU4_1_)" d="M48,8C18.365,8,8,18.365,8,48
			c0,29.633,10.365,40,40,40c29.637,0,40-10.367,40-40C88,18.365,77.637,8,48,8z M48,87.023C18.842,87.023,9,77.176,9,48
			S18.842,8.977,48,8.977S87,18.824,87,48S77.158,87.023,48,87.023z"/>
	</g>
</g>
<g id="PLACE_YOUR_GRAPHIC_HERE">
	<path opacity="0.05" enable-background="new    " d="M62.928,66.93c-2.56,0-5.117-0.935-7.081-2.577
		c-2.232,1.546-4.933,2.394-7.648,2.394c-2.592,0-5.188-0.778-7.361-2.198c-1.28,1.452-3.102,2.276-5.068,2.276
		c-1.418,0-2.814-0.457-3.968-1.292c-1.477,0.775-3.128,1.185-4.797,1.185c-5.697,0-10.331-4.635-10.331-10.332
		c0-5.438,4.351-9.987,9.761-10.285c0.624-1.282,1.504-2.446,2.57-3.397c-0.198-0.638-0.302-1.315-0.302-1.979
		c0-3.626,2.943-6.576,6.562-6.576c0.704,0,1.417,0.115,2.084,0.334c1.937-2.481,4.944-3.952,8.121-3.952
		c4.193,0,7.993,2.571,9.562,6.433c4.728,0.213,8.589,3.494,9.567,8.127c4.249,0.63,7.674,3.613,8.873,7.726
		c3.498,0.264,6.284,3.226,6.284,6.772c0,3.736-3.047,6.775-6.793,6.775c-1.416,0-2.804-0.45-3.95-1.274
		C67.223,66.278,65.076,66.93,62.928,66.93z"/>
	<path opacity="0.07" enable-background="new    " d="M62.928,66.43c-2.592,0-5.137-0.984-7.051-2.713
		c-2.212,1.634-4.922,2.529-7.678,2.529c-2.66,0-5.288-0.838-7.457-2.368c-1.181,1.541-3.002,2.446-4.972,2.446
		c-1.428,0-2.807-0.49-3.923-1.387c-1.476,0.838-3.142,1.279-4.842,1.279c-5.421,0-9.831-4.41-9.831-9.832
		c0-5.322,4.277-9.667,9.585-9.798c0.648-1.436,1.617-2.712,2.828-3.727c-0.251-0.679-0.383-1.41-0.383-2.137
		c0-3.351,2.719-6.076,6.062-6.076c0.777,0,1.551,0.148,2.262,0.43c1.836-2.543,4.774-4.048,7.943-4.048
		c4.138,0,7.795,2.566,9.215,6.423c4.75,0.065,8.67,3.423,9.491,8.086c4.325,0.499,7.833,3.556,8.909,7.76
		c3.414,0.065,6.171,2.861,6.171,6.29c0,3.46-2.823,6.275-6.293,6.275c-1.439,0-2.821-0.491-3.936-1.392
		C67.259,65.737,65.108,66.43,62.928,66.43z"/>
	<path opacity="0.07" enable-background="new    " d="M62.928,66.43c-2.592,0-5.137-0.984-7.051-2.713
		c-2.212,1.634-4.922,2.529-7.678,2.529c-2.66,0-5.288-0.838-7.457-2.368c-1.181,1.541-3.002,2.446-4.972,2.446
		c-1.428,0-2.807-0.49-3.923-1.387c-1.476,0.838-3.142,1.279-4.842,1.279c-5.421,0-9.831-4.41-9.831-9.832
		c0-5.322,4.277-9.667,9.585-9.798c0.648-1.436,1.617-2.712,2.828-3.727c-0.251-0.679-0.383-1.41-0.383-2.137
		c0-3.351,2.719-6.076,6.062-6.076c0.777,0,1.551,0.148,2.262,0.43c1.836-2.543,4.774-4.048,7.943-4.048
		c4.138,0,7.795,2.566,9.215,6.423c4.75,0.065,8.67,3.423,9.491,8.086c4.325,0.499,7.833,3.556,8.909,7.76
		c3.414,0.065,6.171,2.861,6.171,6.29c0,3.46-2.823,6.275-6.293,6.275c-1.439,0-2.821-0.491-3.936-1.392
		C67.259,65.737,65.108,66.43,62.928,66.43z"/>
	<path opacity="0.1" enable-background="new    " d="M62.928,65.93c-2.628,0-5.159-1.04-7.017-2.868
		c-2.188,1.734-4.909,2.685-7.712,2.685c-2.743,0-5.409-0.91-7.572-2.574c-1.057,1.65-2.867,2.652-4.856,2.652
		c-1.424,0-2.813-0.542-3.871-1.499c-1.474,0.911-3.157,1.392-4.895,1.392c-5.145,0-9.331-4.187-9.331-9.332
		c0-5.129,4.186-9.301,9.331-9.301c0.028,0,0.056,0,0.083,0.002c0.663-1.606,1.726-3,3.102-4.07
		c-0.319-0.714-0.487-1.499-0.487-2.292c0-3.075,2.495-5.576,5.562-5.576c0.856,0,1.689,0.19,2.439,0.554
		c1.726-2.622,4.594-4.172,7.766-4.172c4.034,0,7.62,2.624,8.862,6.428c0.068-0.004,0.14-0.006,0.212-0.006
		c4.687,0,8.568,3.43,9.199,8.047c4.428,0.348,8.017,3.481,8.948,7.807c0.09-0.005,0.181-0.008,0.272-0.008
		c3.194,0,5.793,2.598,5.793,5.791c0,3.185-2.599,5.775-5.793,5.775c-1.451,0-2.853-0.554-3.913-1.532
		C67.306,65.188,65.149,65.93,62.928,65.93z"/>
	<path opacity="0.1" enable-background="new    " d="M62.928,65.93c-2.628,0-5.159-1.04-7.017-2.868
		c-2.188,1.734-4.909,2.685-7.712,2.685c-2.743,0-5.409-0.91-7.572-2.574c-1.057,1.65-2.867,2.652-4.856,2.652
		c-1.424,0-2.813-0.542-3.871-1.499c-1.474,0.911-3.157,1.392-4.895,1.392c-5.145,0-9.331-4.187-9.331-9.332
		c0-5.129,4.186-9.301,9.331-9.301c0.028,0,0.056,0,0.083,0.002c0.663-1.606,1.726-3,3.102-4.07
		c-0.319-0.714-0.487-1.499-0.487-2.292c0-3.075,2.495-5.576,5.562-5.576c0.856,0,1.689,0.19,2.439,0.554
		c1.726-2.622,4.594-4.172,7.766-4.172c4.034,0,7.62,2.624,8.862,6.428c0.068-0.004,0.14-0.006,0.212-0.006
		c4.687,0,8.568,3.43,9.199,8.047c4.428,0.348,8.017,3.481,8.948,7.807c0.09-0.005,0.181-0.008,0.272-0.008
		c3.194,0,5.793,2.598,5.793,5.791c0,3.185-2.599,5.775-5.793,5.775c-1.451,0-2.853-0.554-3.913-1.532
		C67.306,65.188,65.149,65.93,62.928,65.93z"/>
	<path opacity="0.15" enable-background="new    " d="M62.928,65.43c-2.654,0-5.19-1.109-6.979-3.047
		c-2.162,1.852-4.889,2.863-7.75,2.863c-2.847,0-5.558-1-7.715-2.832c-0.896,1.782-2.696,2.91-4.713,2.91
		c-1.439,0-2.82-0.602-3.809-1.636c-1.47,1-3.183,1.528-4.957,1.528c-4.87,0-8.831-3.962-8.831-8.832
		c0-4.853,3.961-8.801,8.831-8.801c0.074,0,0.146,0.006,0.218,0.013c0.063,0.001,0.127,0.01,0.192,0.026
		c0.66-1.793,1.844-3.341,3.408-4.454c-0.406-0.741-0.62-1.585-0.62-2.445c0-2.799,2.271-5.076,5.062-5.076
		c0.938,0,1.837,0.248,2.614,0.717c1.584-2.691,4.434-4.335,7.591-4.335c3.974,0,7.449,2.678,8.499,6.456
		c0.011-0.001,0.189-0.013,0.189-0.013c0.122-0.011,0.252-0.021,0.386-0.021c4.579,0,8.332,3.445,8.75,8.021
		c4.521,0.168,8.248,3.455,8.992,7.876c0.223-0.031,0.446-0.052,0.678-0.052c2.919,0,5.293,2.374,5.293,5.291
		c0,2.909-2.374,5.275-5.293,5.275c-1.477,0-2.881-0.619-3.879-1.705C67.366,64.628,65.205,65.43,62.928,65.43z"/>
	<path opacity="0.15" enable-background="new    " d="M62.928,65.43c-2.654,0-5.19-1.109-6.979-3.047
		c-2.162,1.852-4.889,2.863-7.75,2.863c-2.847,0-5.558-1-7.715-2.832c-0.896,1.782-2.696,2.91-4.713,2.91
		c-1.439,0-2.82-0.602-3.809-1.636c-1.47,1-3.183,1.528-4.957,1.528c-4.87,0-8.831-3.962-8.831-8.832
		c0-4.853,3.961-8.801,8.831-8.801c0.074,0,0.146,0.006,0.218,0.013c0.063,0.001,0.127,0.01,0.192,0.026
		c0.66-1.793,1.844-3.341,3.408-4.454c-0.406-0.741-0.62-1.585-0.62-2.445c0-2.799,2.271-5.076,5.062-5.076
		c0.938,0,1.837,0.248,2.614,0.717c1.584-2.691,4.434-4.335,7.591-4.335c3.974,0,7.449,2.678,8.499,6.456
		c0.011-0.001,0.189-0.013,0.189-0.013c0.122-0.011,0.252-0.021,0.386-0.021c4.579,0,8.332,3.445,8.75,8.021
		c4.521,0.168,8.248,3.455,8.992,7.876c0.223-0.031,0.446-0.052,0.678-0.052c2.919,0,5.293,2.374,5.293,5.291
		c0,2.909-2.374,5.275-5.293,5.275c-1.477,0-2.881-0.619-3.879-1.705C67.366,64.628,65.205,65.43,62.928,65.43z"/>
	<path opacity="0.15" enable-background="new    " d="M62.928,64.93c-2.553,0-4.989-1.082-6.687-2.969
		c-0.103-0.114-0.144-0.264-0.123-0.406c-2.057,1.976-4.849,3.191-7.919,3.191c-3.084,0-5.888-1.227-7.948-3.217
		c0.011,0.082,0.001,0.167-0.03,0.247c-0.728,1.852-2.475,3.048-4.451,3.048c-1.572,0-2.97-0.767-3.84-1.948
		c-0.011,0.146-0.085,0.286-0.215,0.376c-1.393,0.958-3.022,1.465-4.71,1.465c-4.594,0-8.331-3.737-8.331-8.332
		c0-4.577,3.737-8.301,8.331-8.301c0.058,0,0.114,0.005,0.171,0.01c0.152,0.004,0.33,0.08,0.421,0.201
		c0.031,0.041,0.059,0.085,0.081,0.132c0.627-2.188,2.065-4.039,3.966-5.202c-0.145-0.024-0.277-0.11-0.355-0.248
		c-0.383-0.679-0.586-1.458-0.586-2.253c0-2.523,2.046-4.576,4.562-4.576c0.919,0,1.794,0.262,2.532,0.758
		c0.104,0.07,0.174,0.173,0.205,0.286c1.354-2.759,4.194-4.662,7.469-4.662c4.031,0,7.401,2.88,8.16,6.689
		c0.012-0.018,0.023-0.035,0.037-0.052c0.089-0.11,0.221-0.177,0.361-0.185l0.165-0.012c0.115-0.01,0.231-0.019,0.351-0.019
		c4.334,0,7.884,3.273,8.256,7.614c0.012,0.134-0.031,0.267-0.119,0.369c-0.011,0.013-0.021,0.025-0.034,0.036
		c0.094-0.003,0.188-0.004,0.282-0.004c4.665,0,8.512,3.565,8.949,8.111c0.075-0.11,0.193-0.189,0.333-0.212
		c0.247-0.039,0.495-0.068,0.753-0.068c2.643,0,4.793,2.149,4.793,4.791c0,2.633-2.15,4.775-4.793,4.775
		c-1.388,0-2.704-0.604-3.613-1.658c-0.089-0.103-0.128-0.232-0.12-0.359C67.606,63.943,65.38,64.93,62.928,64.93z"/>
	<path opacity="0.15" enable-background="new    " d="M62.928,64.93c-2.553,0-4.989-1.082-6.687-2.969
		c-0.103-0.114-0.144-0.264-0.123-0.406c-2.057,1.976-4.849,3.191-7.919,3.191c-3.084,0-5.888-1.227-7.948-3.217
		c0.011,0.082,0.001,0.167-0.03,0.247c-0.728,1.852-2.475,3.048-4.451,3.048c-1.572,0-2.97-0.767-3.84-1.948
		c-0.011,0.146-0.085,0.286-0.215,0.376c-1.393,0.958-3.022,1.465-4.71,1.465c-4.594,0-8.331-3.737-8.331-8.332
		c0-4.577,3.737-8.301,8.331-8.301c0.058,0,0.114,0.005,0.171,0.01c0.152,0.004,0.33,0.08,0.421,0.201
		c0.031,0.041,0.059,0.085,0.081,0.132c0.627-2.188,2.065-4.039,3.966-5.202c-0.145-0.024-0.277-0.11-0.355-0.248
		c-0.383-0.679-0.586-1.458-0.586-2.253c0-2.523,2.046-4.576,4.562-4.576c0.919,0,1.794,0.262,2.532,0.758
		c0.104,0.07,0.174,0.173,0.205,0.286c1.354-2.759,4.194-4.662,7.469-4.662c4.031,0,7.401,2.88,8.16,6.689
		c0.012-0.018,0.023-0.035,0.037-0.052c0.089-0.11,0.221-0.177,0.361-0.185l0.165-0.012c0.115-0.01,0.231-0.019,0.351-0.019
		c4.334,0,7.884,3.273,8.256,7.614c0.012,0.134-0.031,0.267-0.119,0.369c-0.011,0.013-0.021,0.025-0.034,0.036
		c0.094-0.003,0.188-0.004,0.282-0.004c4.665,0,8.512,3.565,8.949,8.111c0.075-0.11,0.193-0.189,0.333-0.212
		c0.247-0.039,0.495-0.068,0.753-0.068c2.643,0,4.793,2.149,4.793,4.791c0,2.633-2.15,4.775-4.793,4.775
		c-1.388,0-2.704-0.604-3.613-1.658c-0.089-0.103-0.128-0.232-0.12-0.359C67.606,63.943,65.38,64.93,62.928,64.93z"/>
	
		<path id="circle238_1_" inkscape:export-filename="/home/user/owncloud/core/img/logo.png" inkscape:export-ydpi="90" inkscape:export-xdpi="90" sodipodi:nodetypes="sscscsscscscscccscscccsssssssscscsccsscscssscsscscsccccscssccsssccs" inkscape:connector-curvature="0" enable-background="new    " d="
		M45.469,32.029c-4.32,0-7.815,3.493-7.815,7.816c0,1.781,0.595,3.421,1.595,4.735c2.169-2.514,5.374-4.107,8.95-4.107
		c1.75,0,3.411,0.389,4.905,1.072c0.121-0.546,0.186-1.116,0.186-1.7C53.289,35.522,49.797,32.029,45.469,32.029z M35.264,35.647
		c-2.252,0-4.062,1.824-4.062,4.076c0,0.729,0.188,1.416,0.521,2.008c1.359-0.767,2.93-1.212,4.598-1.212
		c0.161,0,0.315,0.008,0.476,0.015c-0.02-0.229-0.03-0.456-0.03-0.688c0-1.254,0.271-2.447,0.75-3.525
		C36.874,35.888,36.1,35.647,35.264,35.647L35.264,35.647z M54.543,38.451c-0.166,0-0.326,0.021-0.488,0.03
		c0.07,0.446,0.123,0.897,0.123,1.364c0,0.726-0.096,1.426-0.262,2.099c1.971,1.092,3.609,2.727,4.689,4.706
		c1.121-0.583,2.367-0.954,3.695-1.042C61.957,41.603,58.639,38.451,54.543,38.451z M48.199,41.363
		c-6.051,0-10.943,4.892-10.943,10.941c0,6.051,4.893,10.941,10.943,10.941c6.049,0,10.942-4.891,10.942-10.941
		C59.141,46.255,54.248,41.363,48.199,41.363z M36.322,41.409c-4.694,0-8.49,3.797-8.49,8.491c0,2.762,1.317,5.207,3.355,6.756
		c0.861-1.658,2.588-2.789,4.583-2.789c0.242,0,0.472,0.031,0.705,0.063c-0.073-0.531-0.108-1.074-0.108-1.625
		c0-2.633,0.856-5.067,2.314-7.036c-0.872-1.089-1.496-2.4-1.762-3.829C36.721,41.426,36.522,41.409,36.322,41.409z M62.928,46.466
		c-1.426,0-2.762,0.363-3.939,0.98c0.67,1.481,1.043,3.126,1.043,4.858c0,3.242-1.305,6.184-3.418,8.322
		c1.553,1.727,3.809,2.803,6.314,2.803c4.693,0,8.49-3.795,8.49-8.488S67.621,46.466,62.928,46.466z M27.004,47.584
		c-4.323,0-7.831,3.479-7.831,7.801c0,4.324,3.508,7.832,7.831,7.832c1.645,0,3.169-0.512,4.427-1.377
		c-0.519-0.813-0.826-1.777-0.826-2.809c0-0.531,0.079-1.045,0.231-1.531c-2.358-1.705-3.894-4.477-3.894-7.6
		c0-0.795,0.104-1.564,0.291-2.301C27.156,47.598,27.082,47.584,27.004,47.584L27.004,47.584z M72.963,54.297
		c-0.23,0-0.453,0.027-0.674,0.063c0.014,0.195,0.018,0.383,0.018,0.582c0,2.492-0.984,4.756-2.578,6.438
		c0.785,0.91,1.934,1.484,3.234,1.484c2.371,0,4.293-1.904,4.293-4.275C77.256,56.219,75.334,54.297,72.963,54.297L72.963,54.297z
		 M35.77,54.756c-2.371,0-4.274,1.908-4.274,4.275c0,2.371,1.903,4.293,4.274,4.293c1.815,0,3.358-1.135,3.985-2.73
		c-1.528-1.555-2.628-3.539-3.113-5.746C36.359,54.789,36.072,54.756,35.77,54.756z"/>
	
		<path id="circle238" inkscape:export-filename="/home/user/owncloud/core/img/logo.png" inkscape:export-ydpi="90" inkscape:export-xdpi="90" sodipodi:nodetypes="sscscsscscscscccscscccsssssssscscsccsscscssscsscscsccccscssccsssccs" inkscape:connector-curvature="0" fill="#FFFFFF" enable-background="new    " d="
		M45.469,32.029c-4.32,0-7.815,3.493-7.815,7.816c0,1.781,0.595,3.421,1.595,4.735c2.169-2.514,5.374-4.107,8.95-4.107
		c1.75,0,3.411,0.389,4.905,1.072c0.121-0.546,0.186-1.116,0.186-1.7C53.289,35.522,49.797,32.029,45.469,32.029z M35.264,35.647
		c-2.252,0-4.062,1.824-4.062,4.076c0,0.729,0.188,1.416,0.521,2.008c1.359-0.767,2.93-1.212,4.598-1.212
		c0.161,0,0.315,0.008,0.476,0.015c-0.02-0.229-0.03-0.456-0.03-0.688c0-1.254,0.271-2.447,0.75-3.525
		C36.874,35.888,36.1,35.647,35.264,35.647L35.264,35.647z M54.543,38.451c-0.166,0-0.326,0.021-0.488,0.03
		c0.07,0.446,0.123,0.897,0.123,1.364c0,0.726-0.096,1.426-0.262,2.099c1.971,1.092,3.609,2.727,4.689,4.706
		c1.121-0.583,2.367-0.954,3.695-1.042C61.957,41.603,58.639,38.451,54.543,38.451z M48.199,41.363
		c-6.051,0-10.943,4.892-10.943,10.941c0,6.051,4.893,10.941,10.943,10.941c6.049,0,10.942-4.891,10.942-10.941
		C59.141,46.255,54.248,41.363,48.199,41.363z M36.322,41.409c-4.694,0-8.49,3.797-8.49,8.491c0,2.762,1.317,5.207,3.355,6.756
		c0.861-1.658,2.588-2.789,4.583-2.789c0.242,0,0.472,0.031,0.705,0.063c-0.073-0.531-0.108-1.074-0.108-1.625
		c0-2.633,0.856-5.067,2.314-7.036c-0.872-1.089-1.496-2.4-1.762-3.829C36.721,41.426,36.522,41.409,36.322,41.409z M62.928,46.466
		c-1.426,0-2.762,0.363-3.939,0.98c0.67,1.481,1.043,3.126,1.043,4.858c0,3.242-1.305,6.184-3.418,8.322
		c1.553,1.727,3.809,2.803,6.314,2.803c4.693,0,8.49-3.795,8.49-8.488S67.621,46.466,62.928,46.466z M27.004,47.584
		c-4.323,0-7.831,3.479-7.831,7.801c0,4.324,3.508,7.832,7.831,7.832c1.645,0,3.169-0.512,4.427-1.377
		c-0.519-0.813-0.826-1.777-0.826-2.809c0-0.531,0.079-1.045,0.231-1.531c-2.358-1.705-3.894-4.477-3.894-7.6
		c0-0.795,0.104-1.564,0.291-2.301C27.156,47.598,27.082,47.584,27.004,47.584L27.004,47.584z M72.963,54.297
		c-0.23,0-0.453,0.027-0.674,0.063c0.014,0.195,0.018,0.383,0.018,0.582c0,2.492-0.984,4.756-2.578,6.438
		c0.785,0.91,1.934,1.484,3.234,1.484c2.371,0,4.293-1.904,4.293-4.275C77.256,56.219,75.334,54.297,72.963,54.297L72.963,54.297z
		 M35.77,54.756c-2.371,0-4.274,1.908-4.274,4.275c0,2.371,1.903,4.293,4.274,4.293c1.815,0,3.358-1.135,3.985-2.73
		c-1.528-1.555-2.628-3.539-3.113-5.746C36.359,54.789,36.072,54.756,35.77,54.756z"/>
</g>
<g id="DO_NOT_EDIT_-_FOCAL_ZONE_GUIDES_ONLY">
</g>
</svg>
